<?xml version="1.0" encoding="UTF-8" standalone="no"?>
<!DOCTYPE svg PUBLIC "-//W3C//DTD SVG 1.1//EN"
 "http://www.w3.org/Graphics/SVG/1.1/DTD/svg11.dtd">
<!-- Generated by graphviz version 9.0.0 (20230911.1827)
 -->
<!-- Title: G Pages: 1 -->
<svg width="811pt" height="152pt"
 viewBox="0.00 0.00 811.25 152.00" xmlns="http://www.w3.org/2000/svg" xmlns:xlink="http://www.w3.org/1999/xlink">
<g id="graph0" class="graph" transform="scale(1 1) rotate(0) translate(4 148)">
<title>G</title>
<polygon fill="white" stroke="none" points="-4,4 -4,-148 807.25,-148 807.25,4 -4,4"/>
<!-- aws_iam_group.group&#45;rolling -->
<g id="node1" class="node">
<title>aws_iam_group.group&#45;rolling</title>
<polygon fill="none" stroke="black" points="427.62,-90 221.88,-90 221.88,-54 427.62,-54 427.62,-90"/>
<text text-anchor="middle" x="324.75" y="-68.45" font-family="sans-serif" font-size="14.00">aws_iam_group.group&#45;rolling</text>
</g>
<!-- aws_iam_group_policy_attachment.group&#45;rolling -->
<g id="node2" class="node">
<title>aws_iam_group_policy_attachment.group&#45;rolling</title>
<polygon fill="none" stroke="black" points="803.25,-90 470.75,-90 470.75,-54 803.25,-54 803.25,-90"/>
<text text-anchor="middle" x="637" y="-68.45" font-family="sans-serif" font-size="14.00">aws_iam_group_policy_attachment.group&#45;rolling</text>
</g>
<!-- aws_iam_group_policy_attachment.group&#45;rolling&#45;&gt;aws_iam_group.group&#45;rolling -->
<g id="edge1" class="edge">
<title>aws_iam_group_policy_attachment.group&#45;rolling&#45;&gt;aws_iam_group.group&#45;rolling</title>
<path fill="none" stroke="black" d="M470.43,-72C459.94,-72 449.51,-72 439.34,-72"/>
<polygon fill="black" stroke="black" points="439.49,-68.5 429.49,-72 439.49,-75.5 439.49,-68.5"/>
</g>
<!-- aws_iam_user.user&#45;rolling -->
<g id="node3" class="node">
<title>aws_iam_user.user&#45;rolling</title>
<polygon fill="none" stroke="black" points="417.5,-36 232,-36 232,0 417.5,0 417.5,-36"/>
<text text-anchor="middle" x="324.75" y="-14.45" font-family="sans-serif" font-size="14.00">aws_iam_user.user&#45;rolling</text>
</g>
<!-- aws_iam_user_group_membership.user&#45;rolling -->
<g id="node4" class="node">
<title>aws_iam_user_group_membership.user&#45;rolling</title>
<polygon fill="none" stroke="black" points="798.38,-36 475.62,-36 475.62,0 798.38,0 798.38,-36"/>
<text text-anchor="middle" x="637" y="-14.45" font-family="sans-serif" font-size="14.00">aws_iam_user_group_membership.user&#45;rolling</text>
</g>
<!-- aws_iam_user_group_membership.user&#45;rolling&#45;&gt;aws_iam_group.group&#45;rolling -->
<g id="edge2" class="edge">
<title>aws_iam_user_group_membership.user&#45;rolling&#45;&gt;aws_iam_group.group&#45;rolling</title>
<path fill="none" stroke="black" d="M520.82,-36.48C504.02,-39.28 486.93,-42.17 470.75,-45 458.97,-47.06 446.66,-49.27 434.41,-51.5"/>
<polygon fill="black" stroke="black" points="433.89,-48.03 424.68,-53.28 435.15,-54.92 433.89,-48.03"/>
</g>
<!-- aws_iam_user_group_membership.user&#45;rolling&#45;&gt;aws_iam_user.user&#45;rolling -->
<g id="edge3" class="edge">
<title>aws_iam_user_group_membership.user&#45;rolling&#45;&gt;aws_iam_user.user&#45;rolling</title>
<path fill="none" stroke="black" d="M475.42,-18C459.63,-18 443.92,-18 428.94,-18"/>
<polygon fill="black" stroke="black" points="429.15,-14.5 419.15,-18 429.15,-21.5 429.15,-14.5"/>
</g>
<!-- aws_s3_bucket.terraform_state -->
<g id="node5" class="node">
<title>aws_s3_bucket.terraform_state</title>
<polygon fill="none" stroke="black" points="434.75,-144 214.75,-144 214.75,-108 434.75,-108 434.75,-144"/>
<text text-anchor="middle" x="324.75" y="-122.45" font-family="sans-serif" font-size="14.00">aws_s3_bucket.terraform_state</text>
</g>
<!-- random_id.unique_suffix -->
<g id="node7" class="node">
<title>random_id.unique_suffix</title>
<polygon fill="none" stroke="black" points="178.75,-144 0,-144 0,-108 178.75,-108 178.75,-144"/>
<text text-anchor="middle" x="89.38" y="-122.45" font-family="sans-serif" font-size="14.00">random_id.unique_suffix</text>
</g>
<!-- aws_s3_bucket.terraform_state&#45;&gt;random_id.unique_suffix -->
<g id="edge4" class="edge">
<title>aws_s3_bucket.terraform_state&#45;&gt;random_id.unique_suffix</title>
<path fill="none" stroke="black" d="M214.58,-126C206.61,-126 198.59,-126 190.68,-126"/>
<polygon fill="black" stroke="black" points="190.68,-122.5 180.68,-126 190.68,-129.5 190.68,-122.5"/>
</g>
<!-- aws_s3_bucket_versioning.versioning -->
<g id="node6" class="node">
<title>aws_s3_bucket_versioning.versioning</title>
<polygon fill="none" stroke="black" points="768.38,-144 505.62,-144 505.62,-108 768.38,-108 768.38,-144"/>
<text text-anchor="middle" x="637" y="-122.45" font-family="sans-serif" font-size="14.00">aws_s3_bucket_versioning.versioning</text>
</g>
<!-- aws_s3_bucket_versioning.versioning&#45;&gt;aws_s3_bucket.terraform_state -->
<g id="edge5" class="edge">
<title>aws_s3_bucket_versioning.versioning&#45;&gt;aws_s3_bucket.terraform_state</title>
<path fill="none" stroke="black" d="M505.33,-126C485.81,-126 465.76,-126 446.46,-126"/>
<polygon fill="black" stroke="black" points="446.7,-122.5 436.7,-126 446.7,-129.5 446.7,-122.5"/>
</g>
</g>
</svg>
